<svg xmlns="http://www.w3.org/2000/svg" width="538" height="152.001" viewBox="0 0 538 152.001">
  <path id="Subtraction_1" data-name="Subtraction 1" d="M-1650,2456h-538V2304h538v152Zm-40.6-52.4v9.1h7.2v-71.4h-7.4v28.8l-8.2-7.2h-19.2l-9.2,9.2v31.4l9.2,9.2h18.5l9.1-9.1Zm-71.8-40.7v49.8h7.4v-32.6l10.6-10.6h11v-6.6h-12.9l-8.9,8.9v-8.9Zm-21.6,41v8.8h7.1v-40.6l-9.2-9.2h-23.3l-9.2,9.2v6.2h7.4v-4.1l5-4.9h17l5,4.9v9.5h-26.6l-8.2,8.1v12.7l8.2,8.2h17.6l9.2-8.8Zm-82.3-41h0l-9.2,9.2v31.4l9.2,9.2h25.6l9.2-9.2v-31.4l-9.2-9.2Zm-66-21.6v62.2l9.2,9.2h25.4l9.2-9.2v-31.4l-9.2-9.2h-17.5l-9.7,9.7v-31.3Zm-37.2,28.2h10.3l5,4.9v38.3h7.4v-40.6l-9.2-9.2h-15.5l-10.4,10.4v-32h-7.4v71.4h7.4v-30.8l12.4-12.4Zm-73.5,28.8v6.2l8.2,8.2h24.8l8.2-8.2v-11.8l-8.2-8.2h-21.2l-4-4v-7.3l4-3.9h17l4,3.9v4.1h7.4v-6.2l-8.2-8.2h-23.4l-8.2,8.2v11.7l7.9,7.9h21.5l4,4v7.7l-4,3.9h-18.4l-4-3.9v-4.1Zm-19.1,5.6v8.8h7.1v-40.6l-9.2-9.2h-23.3l-9.2,9.2v6.2h7.4v-4.1l5-4.9h17l5,4.9v9.5h-26.6l-8.2,8.1v12.7l8.2,8.2h17.6l9.2-8.8Zm-55.7-.3v9.1h7.2v-71.4h-7.4v28.8l-8.2-7.2h-19.2l-9.2,9.2v31.4l9.2,9.2h18.5l9.1-9.1Zm323.1,2.7h-12.9l-4-3.9V2394l4-3.9h23.4v6.1l-10.5,10.1Zm-278.1,0h-12.9l-4-3.9V2394l4-3.9h23.4v6.1l-10.5,10.1Zm371.5-.2H-1715l-5-4.9v-26.8l5-4.9h14.6l9.6,8.4v17.7l-10.5,10.5Zm-427.2,0h-13.7l-5-4.9v-26.8l5-4.9h14.6l9.6,8.4v17.7l-10.5,10.5Zm284.6,0h-19.2l-5-4.9v-26.8l5-4.9h19.2l5,4.9v26.8l-5,4.9Zm-57,0h-19l-5-4.9v-19.9l11.8-11.8h12.2l5,4.9v26.8l-5,4.9Z" transform="translate(2188 -2304)" fill="#eee"/>
</svg>
