<svg xmlns="http://www.w3.org/2000/svg" width="106" height="31" viewBox="0 0 106 31"><g transform="translate(-757 -986)"><path d="M1.5-9.96H2.94v1.78L4.72-9.96H8.46L10.3-8.12v6.28L8.46,0H4.62L2.98-1.44V4.24H1.5ZM7.82-1.32l1-.98V-7.66l-1-.98H5.12L2.98-6.5v3.44L4.9-1.32Zm5.08-.52V-8.12l1.84-1.84h5.02l1.86,1.84v3.58H14.38V-2.3l1,.98h3.74l1-.98v-.76H21.6v1.22L19.76,0H14.74Zm7.24-3.98V-7.66l-1-.98H15.38l-1,.98v1.84Zm4.18-4.14h1.44v2.12l2.12-2.12h3.06l1.84,1.84V0H31.3V-7.66l-1-.98H28.28L25.8-6.16V0H24.32ZM36.38-1.84V-8.66h-1.8v-1.3h1.84V-13.2h1.44v3.24h3.12v1.3H37.86V-2.3l1,1h2.12V0H38.22Zm6.9-12.44h1.48v6.4l2.08-2.08h3.1l1.84,1.84V0H50.3V-7.66l-1-.98H47.24L44.76-6.16V0H43.28ZM54.48-1.84V-8.12l1.84-1.84h5.12l1.84,1.84v6.28L61.44,0H56.32Zm6.32.52,1-.98V-7.66l-1-.98H56.96l-1,.98V-2.3l1,.98Zm5.18-.52V-9.96h1.48V-2.3l1,.98h2L72.94-3.8V-9.96h1.48V0H72.98V-2.12L70.86,0H67.82Zm10.94.2V-2.88H78.4v.82l.8.78h3.68l.8-.78V-3.6l-.8-.8h-4.3L77-5.98V-8.32l1.64-1.64h4.68l1.64,1.64v1.24H83.48V-7.9l-.8-.78h-3.4l-.8.78v1.46l.8.8h4.24L85.16-4v2.36L83.52,0H78.56Zm10.54-.2V-8.12L89.3-9.96h5.02l1.86,1.84v3.58H88.94V-2.3l1,.98h3.74l1-.98v-.76h1.48v1.22L94.32,0H89.3ZM94.7-5.82V-7.66l-1-.98H89.94l-1,.98v1.84Z" transform="translate(761 1008)" fill="#333"/><g transform="translate(757 986)" fill="none" stroke="#333" stroke-width="1"><rect width="106" height="31" stroke="none"/><rect x="0.5" y="0.5" width="105" height="30" fill="none"/></g></g></svg>