<svg xmlns="http://www.w3.org/2000/svg" width="538" height="152.001" viewBox="0 0 538 152.001"><path d="M-1650,2456h-538V2304h538v152Zm-509.638-96.062v71.938h7.5V2403.1l8.308,7.3h19.453l9.322-9.321V2369.26l-9.322-9.321h-18.947l-9.018,9.017v-9.017Zm444.8,0h0l-9.321,9.321v31.815l9.321,9.321h25.432l9.321-9.321v-6.181h-7.5v3.85l-5.066,4.965H-1711.6l-5.066-4.965V2387.4h36.679V2369.26l-9.423-9.321Zm-62.717,35.868v6.281l8.309,8.309h25.127l8.309-8.309v-11.956l-8.309-8.308h-21.48l-4.053-4.053v-7.4l4.053-3.951h17.225l4.053,3.951v4.154h7.5v-6.282l-8.309-8.308h-23.709l-8.308,8.308V2380.1l8,8h21.785l4.053,4.053v7.8l-4.052,3.952h-18.644l-4.053-3.952v-4.154Zm-19.96,3.85v10.74h7.3v-50.458h-7.5v31.207l-12.564,12.564h-10.132l-5.066-4.965v-38.805h-7.5v41.136l9.322,9.321h15.4l10.738-10.738Zm-84.4-39.718h0l-9.322,9.321v31.815l9.322,9.321h25.938l9.321-9.321V2369.26l-9.321-9.321Zm-35.564,6.687,5.066,4.964V2410.4h7.5V2369.26l-9.321-9.321h-15.705l-10.537,10.537v-32.422h-7.5V2410.4h7.5V2379.19l12.564-12.564h0Zm-74.572-6.687v6.585h9.12v34.551l9.321,9.321h13.982v-6.586h-10.741l-5.066-5.066v-32.22h15.807v-6.585h-15.807v-16.414h-7.294v16.414Zm-21.683,6.687,5.066,4.964V2410.4h7.5V2369.26l-9.321-9.321H-2026l-10.74,10.74v-10.74h-7.3V2410.4h7.5V2379.19l12.564-12.564h0Zm-78.827-6.687-9.321,9.321v31.815l9.321,9.321h25.431l9.321-9.321v-6.181h-7.5v3.85l-5.066,4.965h-18.947l-5.067-4.965V2387.4h36.679V2369.26l-9.423-9.321Zm233.342,43.771h-19.453l-5.066-4.965V2371.59l5.066-4.964h19.453l5.066,4.964v27.154l-5.066,4.965Zm-268.4,0h-14.793l-9.726-8.815v-17.427l10.84-10.841h13.679l5.066,4.964v27.154l-5.066,4.965Zm440.139-22.8h-29.181v-9.322l5.066-4.964h19.048l5.066,4.964v9.321Zm-377.725,0h-29.181v-9.322l5.067-4.964h19.048l5.066,4.964v9.321Z" transform="translate(2188 -2304)" fill="#eee"/></svg>